<svg id="Layer_1" data-name="Layer 1" xmlns="http://www.w3.org/2000/svg" width="1625" height="225" viewBox="0 0 1625 225">
  <defs>
    <style>
      .cls-1 {
        fill: #fff;
      }
    </style>
  </defs>
  <title>FF_infographic_sprite</title>
  <g>
    <path class="cls-1" d="M935.311,210.328H895.389V170.407Zm-36.922-3h29.68l-29.68-29.679v29.679Z"/>
    <path class="cls-1" d="M974.648,210.328H934.727l39.922-39.921v39.921Zm-32.68-3h29.68V177.649Z"/>
    <path class="cls-1" d="M934.978,210.307a2,2,0,0,1-2-2V174.916c0-19.561,2.9-33.2,9.993-47.062a35.8,35.8,0,0,0,3.018-25.87c-0.569-2.3-1.256-4.57-1.982-6.978a110.982,110.982,0,0,1-5.6-36.552,2,2,0,0,1,4,0,107.512,107.512,0,0,0,5.428,35.4c0.742,2.457,1.442,4.778,2.036,7.172a39.654,39.654,0,0,1-3.338,28.651c-7.931,15.493-9.556,29.291-9.556,45.242v33.391A2,2,0,0,1,934.978,210.307Z"/>
    <path class="cls-1" d="M945.175,94.563l-0.335-1.068c-2.191-6.989,2.588-15.523,10.653-19.023l2.554-1.108L957.568,76.1c-0.327,1.875-3.421,18.319-11.273,18.441Zm8.744-15.783c-4.151,2.9-7.227,7.8-6.522,12.486C950.34,89.881,952.687,83.622,953.919,78.78Z"/>
    <path class="cls-1" d="M970.317,132c-2.345,0-4.43-.61-5.795-2.251l-0.716-.861,0.621-.931c4.065-6.093,13.708-7.729,21.5-3.645l2.465,1.292-2.435,1.348C984.742,127.629,976.6,132,970.317,132Zm-2.551-3.452c2.924,1.42,9.271-.679,13.814-2.758C976.716,124.381,970.97,125.066,967.767,128.553Z"/>
  </g>
  <g>
    <path class="cls-1" d="M810.787,210.438H770.866V170.516Zm-36.921-3h29.679l-29.679-29.679v29.679Z"/>
    <path class="cls-1" d="M850.125,210.438H810.2l39.921-39.922v39.922Zm-32.679-3h29.679V177.759Z"/>
    <path class="cls-1" d="M845.794,132.115c-2.345,0-4.429-.61-5.795-2.251L839.283,129l0.621-.931c4.066-6.093,13.71-7.729,21.5-3.645l2.465,1.292-2.435,1.348C860.22,127.739,852.073,132.115,845.794,132.115Zm-2.551-3.452c2.926,1.423,9.273-.679,13.815-2.758C852.193,124.492,846.446,125.177,843.243,128.663Z"/>
  </g>
  <g>
    <path class="cls-1" d="M60.873,210.622L32.645,182.392l28.229-28.229v56.458ZM36.887,182.392l20.986,20.986V161.406Z"/>
    <path class="cls-1" d="M61.12,210.621V154.164l28.229,28.229Zm3-49.215v41.973l20.987-20.987Z"/>
  </g>
  <g>
    <path class="cls-1" d="M185.873,210.622l-28.229-28.229,28.229-28.229v56.458Zm-23.986-28.229,20.986,20.986V161.406Z"/>
    <path class="cls-1" d="M186.12,210.621V154.164l28.229,28.229Zm3-49.215v41.973l20.987-20.987Z"/>
  </g>
  <g>
    <path class="cls-1" d="M311.012,210.555l-29.3-27.116,27.116-29.3Zm-25.06-27.28,21.782,20.159-1.623-41.941Z"/>
    <path class="cls-1" d="M310.972,210.573l2.318-56.41,27.046,29.364Zm5.019-49.051-1.724,41.938,21.83-20.106Z"/>
  </g>
  <g>
    <path class="cls-1" d="M436.622,210.154l-33.356-21.935L425.2,154.863Zm-29.2-22.793,24.8,16.307-8.49-41.1Z"/>
    <path class="cls-1" d="M435.617,210.44l7.51-55.956,24.223,31.733Zm9.52-48.379-5.583,41.6,23.592-18.008Z"/>
  </g>
  <g>
    <path class="cls-1" d="M562.232,209.58l-37.224-14.427,14.428-37.224ZM528.89,193.44l27.673,10.725-16.948-38.4Z"/>
    <path class="cls-1" d="M559.951,210.145l17.578-53.652,18.037,35.615Zm18.173-45.836L565.057,204.2l26.477-13.41Z"/>
  </g>
  <g>
    <path class="cls-1" d="M687.838,209.531l-39.587-5.157,5.157-39.587Zm-36.225-7.744,29.431,3.834-25.6-33.265Z"/>
    <path class="cls-1" d="M684.25,210.194l30.279-47.652,8.686,38.965Zm28.927-39.93L690.667,205.69l28.969-6.458Z"/>
  </g>
  <path class="cls-1" d="M810.02,210.25a2,2,0,0,1-2-2V174.859c0-19.561,2.9-33.2,9.993-47.062a35.8,35.8,0,0,0,3.018-25.871c-0.569-2.3-1.256-4.571-1.982-6.979a123.239,123.239,0,0,1-4.16-17.012,2,2,0,1,1,3.949-.637,118.1,118.1,0,0,0,4.04,16.493c0.742,2.457,1.442,4.778,2.036,7.173a39.647,39.647,0,0,1-3.338,28.652c-7.931,15.493-9.556,29.291-9.556,45.242V208.25A2,2,0,0,1,810.02,210.25Z"/>
  <path class="cls-1" d="M685.02,208.725a2,2,0,0,1-2-2V173.333c0-19.562,2.9-33.2,9.993-47.062A35.8,35.8,0,0,0,696.03,100.4a2,2,0,1,1,3.883-.962,39.648,39.648,0,0,1-3.338,28.652c-7.93,15.491-9.555,29.29-9.555,45.242v33.391A2,2,0,0,1,685.02,208.725Z"/>
  <path class="cls-1" d="M560.02,208.725a2,2,0,0,1-2-2V173.333c0-19.562,2.9-33.2,9.993-47.062a36.388,36.388,0,0,0,4.145-14.878,2,2,0,1,1,4,.206,40.307,40.307,0,0,1-4.578,16.492c-7.93,15.491-9.555,29.29-9.555,45.242v33.391A2,2,0,0,1,560.02,208.725Z"/>
  <path class="cls-1" d="M435.02,208.725a2,2,0,0,1-2-2V173.333c0-19.562,2.9-33.2,9.993-47.062a2,2,0,1,1,3.561,1.822c-7.929,15.488-9.553,29.287-9.553,45.239v33.391A2,2,0,0,1,435.02,208.725Z"/>
  <path class="cls-1" d="M310.02,208.725a2,2,0,0,1-2-2V173.333c0-12.871,1.2-22.685,3.876-31.822a2,2,0,1,1,3.838,1.126c-2.568,8.756-3.714,18.223-3.714,30.7v33.391A2,2,0,0,1,310.02,208.725Z"/>
  <path class="cls-1" d="M185.02,208.725a2,2,0,0,1-2-2V173.333a134.44,134.44,0,0,1,1.236-19.62,2,2,0,1,1,3.958.576,130.645,130.645,0,0,0-1.194,19.043v33.391A2,2,0,0,1,185.02,208.725Z"/>
  <path class="cls-1" d="M560.771,159.86l-0.1,0a1.5,1.5,0,0,1-1.4-1.594c0.116-1.8.457-3.959,0.851-6.464,0.994-6.316,2.231-14.177.649-21.121a1.5,1.5,0,0,1,2.925-.666c1.71,7.506.423,15.683-.611,22.253-0.382,2.432-.713,4.532-0.82,6.191A1.5,1.5,0,0,1,560.771,159.86Z"/>
  <path class="cls-1" d="M560.228,165.833a1.47,1.47,0,0,1-.2-0.013,1.5,1.5,0,0,1-1.293-1.681c0.078-.6.143-1.247,0.212-1.941,0.5-5.013,1.262-12.588,8.453-19.106a1.5,1.5,0,1,1,2.015,2.223c-6.335,5.744-7,12.355-7.482,17.183-0.073.726-.141,1.406-0.223,2.029A1.5,1.5,0,0,1,560.228,165.833Z"/>
  <path class="cls-1" d="M686.271,159.86l-0.1,0a1.5,1.5,0,0,1-1.4-1.594c0.116-1.8.457-3.959,0.851-6.464,1.479-9.4,3.5-22.264-3.971-30.142a1.5,1.5,0,0,1,2.177-2.064c8.491,8.95,6.244,23.226,4.758,32.673-0.382,2.432-.713,4.532-0.82,6.191A1.5,1.5,0,0,1,686.271,159.86Z"/>
  <path class="cls-1" d="M685.728,165.833a1.475,1.475,0,0,1-.2-0.013,1.5,1.5,0,0,1-1.293-1.681c0.078-.6.143-1.247,0.212-1.94,0.668-6.66,1.786-17.808,17.761-25.023a1.5,1.5,0,1,1,1.234,2.734c-14.4,6.5-15.368,16.183-16.01,22.588-0.073.726-.141,1.405-0.223,2.029A1.5,1.5,0,0,1,685.728,165.833Z"/>
  <path class="cls-1" d="M810.771,160.221l-0.1,0a1.5,1.5,0,0,1-1.4-1.594c0.116-1.8.456-3.959,0.851-6.464,1.479-9.4,3.5-22.263-3.97-30.142a62.951,62.951,0,0,0-10.485-8.306l-0.25-.17a1.5,1.5,0,0,1,1.691-2.479l0.249,0.17a65.236,65.236,0,0,1,10.971,8.72c8.491,8.95,6.244,23.226,4.758,32.672-0.383,2.432-.714,4.532-0.82,6.191A1.5,1.5,0,0,1,810.771,160.221Z"/>
  <path class="cls-1" d="M810.228,166.193a1.5,1.5,0,0,1-1.489-1.694c0.078-.6.143-1.247,0.212-1.94,0.668-6.661,1.785-17.808,17.762-25.023a34.843,34.843,0,0,0,11.688-8.388,1.5,1.5,0,0,1,2.23,2.007,37.839,37.839,0,0,1-12.685,9.116c-14.4,6.5-15.369,16.182-16.011,22.588-0.073.726-.142,1.405-0.223,2.029A1.5,1.5,0,0,1,810.228,166.193Z"/>
  <path class="cls-1" d="M935.9,159.361l-0.1,0a1.5,1.5,0,0,1-1.4-1.594c0.116-1.8.456-3.959,0.851-6.464,1.479-9.4,3.5-22.263-3.97-30.142a62.979,62.979,0,0,0-10.5-8.312c-5.119-3.491-9.955-6.788-12.781-11.8a1.5,1.5,0,0,1,2.613-1.475c2.481,4.4,7.036,7.5,11.858,10.792a65.239,65.239,0,0,1,10.981,8.727c8.491,8.95,6.244,23.226,4.758,32.672-0.383,2.432-.714,4.532-0.82,6.191A1.5,1.5,0,0,1,935.9,159.361Z"/>
  <path class="cls-1" d="M935.353,165.333a1.5,1.5,0,0,1-1.489-1.694c0.078-.6.143-1.247,0.212-1.94,0.668-6.661,1.785-17.808,17.762-25.023a33.215,33.215,0,0,0,15.747-14.062,1.5,1.5,0,0,1,2.623,1.457,36.194,36.194,0,0,1-17.136,15.339c-14.4,6.5-15.369,16.182-16.011,22.588-0.073.726-.142,1.405-0.223,2.029A1.5,1.5,0,0,1,935.353,165.333Z"/>
  <g>
    <g>
      <path class="cls-1" d="M1060.353,210.4h-39.922V170.475Zm-36.922-3h29.68l-29.68-29.679V207.4Z"/>
      <path class="cls-1" d="M1099.69,210.4h-39.922l39.922-39.921V210.4Zm-32.68-3h29.68V177.717Z"/>
      <path class="cls-1" d="M1060.02,210.375a2,2,0,0,1-2-2V174.984c0-19.561,2.9-33.2,9.993-47.062a35.8,35.8,0,0,0,3.018-25.871c-0.569-2.3-1.256-4.57-1.982-6.977a110.988,110.988,0,0,1-5.6-36.552,2,2,0,1,1,4,0,107.518,107.518,0,0,0,5.428,35.4c0.742,2.457,1.442,4.777,2.036,7.171a39.647,39.647,0,0,1-3.338,28.652c-7.931,15.493-9.556,29.291-9.556,45.242v33.391A2,2,0,0,1,1060.02,210.375Z"/>
    </g>
    <path class="cls-1" d="M1060.771,160.346l-0.1,0a1.5,1.5,0,0,1-1.4-1.594c0.116-1.8.456-3.959,0.851-6.464,1.479-9.4,3.5-22.263-3.97-30.142a62.951,62.951,0,0,0-10.485-8.306l-0.25-.17a1.5,1.5,0,0,1,1.691-2.479l0.249,0.17a65.236,65.236,0,0,1,10.971,8.72c8.491,8.95,6.244,23.226,4.758,32.672-0.383,2.432-.714,4.532-0.82,6.191A1.5,1.5,0,0,1,1060.771,160.346Z"/>
    <path class="cls-1" d="M1060.228,166.318a1.5,1.5,0,0,1-1.489-1.694c0.078-.6.143-1.247,0.212-1.94,0.668-6.661,1.785-17.808,17.762-25.023a34.843,34.843,0,0,0,11.688-8.388,1.5,1.5,0,0,1,2.23,2.007,37.839,37.839,0,0,1-12.685,9.116c-14.4,6.5-15.369,16.182-16.011,22.588-0.073.726-.142,1.405-0.223,2.029A1.5,1.5,0,0,1,1060.228,166.318Z"/>
    <path class="cls-1" d="M1060.711,160.362l-0.1,0a1.5,1.5,0,0,1-1.4-1.594c0.116-1.8.456-3.958,0.851-6.463,1.479-9.4,3.5-22.265-3.971-30.143a62.976,62.976,0,0,0-10.5-8.312c-7.746-5.283-15.757-10.745-15.161-22.657a1.5,1.5,0,1,1,3,.149c-0.512,10.232,6.146,14.772,13.855,20.028a65.2,65.2,0,0,1,10.981,8.727c8.491,8.95,6.245,23.227,4.758,32.674-0.382,2.431-.713,4.531-0.819,6.19A1.5,1.5,0,0,1,1060.711,160.362Z"/>
    <path class="cls-1" d="M1060.168,166.334a1.5,1.5,0,0,1-1.489-1.694c0.078-.6.143-1.247,0.212-1.94,0.668-6.66,1.785-17.808,17.761-25.022,15.919-7.189,18.39-20.737,18.413-20.873a1.5,1.5,0,1,1,2.957.5c-0.1.62-2.776,15.265-20.136,23.105-14.4,6.5-15.367,16.182-16.01,22.587-0.073.726-.142,1.405-0.223,2.029A1.5,1.5,0,0,1,1060.168,166.334Z"/>
    <path class="cls-1" d="M1060.711,160.362l-0.1,0a1.5,1.5,0,0,1-1.4-1.594c0.116-1.8.456-3.958,0.851-6.463,1.479-9.4,3.5-22.265-3.971-30.143a62.976,62.976,0,0,0-10.5-8.312c-7.746-5.283-15.757-10.745-15.161-22.657a1.5,1.5,0,1,1,3,.149c-0.512,10.232,6.146,14.772,13.855,20.028a65.2,65.2,0,0,1,10.981,8.727c8.491,8.95,6.245,23.227,4.758,32.674-0.382,2.431-.713,4.531-0.819,6.19A1.5,1.5,0,0,1,1060.711,160.362Z"/>
    <path class="cls-1" d="M1060.168,166.334a1.5,1.5,0,0,1-1.489-1.694c0.078-.6.143-1.247,0.212-1.94,0.668-6.66,1.785-17.808,17.761-25.022,15.919-7.189,18.39-20.737,18.413-20.873a1.5,1.5,0,1,1,2.957.5c-0.1.62-2.776,15.265-20.136,23.105-14.4,6.5-15.367,16.182-16.01,22.587-0.073.726-.142,1.405-0.223,2.029A1.5,1.5,0,0,1,1060.168,166.334Z"/>
    <g>
      <path class="cls-1" d="M1070.258,94.881l-0.335-1.068c-2.191-6.989,2.588-15.523,10.654-19.023l2.553-1.108-0.479,2.742c-0.327,1.875-3.421,18.319-11.273,18.441ZM1079,79.1c-4.151,2.9-7.227,7.8-6.522,12.487C1075.423,90.2,1077.77,83.94,1079,79.1Z"/>
      <path class="cls-1" d="M1034.725,111.329c-6.278,0-14.425-4.376-15.637-5.047l-2.435-1.348,2.465-1.292c7.788-4.083,17.431-2.448,21.5,3.645l0.621,0.931-0.716.861C1039.154,110.719,1037.069,111.329,1034.725,111.329Zm-11.283-6.2c4.833,2.244,10.974,4.168,13.837,2.756C1034.072,104.387,1028.312,103.706,1023.441,105.125Z"/>
      <path class="cls-1" d="M1095.4,132.323c-2.346,0-4.43-.61-5.8-2.252l-0.716-.861,0.621-.931c4.067-6.093,13.709-7.727,21.5-3.645l2.465,1.292-2.435,1.348C1109.826,127.947,1101.68,132.323,1095.4,132.323Zm-2.552-3.452c2.928,1.422,9.272-.68,13.815-2.758C1101.8,124.7,1096.053,125.385,1092.85,128.871Z"/>
    </g>
  </g>
  <g>
    <g>
      <path class="cls-1" d="M1185.373,210.371h-39.922V170.449Zm-36.922-3h29.68l-29.68-29.68v29.68Z"/>
      <path class="cls-1" d="M1224.711,210.371h-39.922l39.922-39.922v39.922Zm-32.68-3h29.68v-29.68Z"/>
      <path class="cls-1" d="M1185.855,160.17l-0.1,0a1.5,1.5,0,0,1-1.4-1.594c0.116-1.8.456-3.959,0.851-6.463,1.479-9.4,3.5-22.264-3.971-30.142a62.979,62.979,0,0,0-10.5-8.312C1163,108.373,1154.984,102.911,1155.58,91a1.5,1.5,0,1,1,3,.149c-0.512,10.232,6.146,14.772,13.855,20.029a65.2,65.2,0,0,1,10.981,8.727c8.491,8.95,6.245,23.226,4.759,32.673-0.383,2.432-.714,4.531-0.82,6.19A1.5,1.5,0,0,1,1185.855,160.17Z"/>
      <path class="cls-1" d="M1185.313,166.143a1.5,1.5,0,0,1-1.489-1.694c0.078-.6.143-1.247,0.212-1.94,0.668-6.661,1.785-17.808,17.761-25.023,15.919-7.189,18.39-20.737,18.413-20.873a1.5,1.5,0,1,1,2.957.5c-0.1.62-2.776,15.266-20.136,23.105-14.4,6.5-15.368,16.182-16.01,22.588-0.073.726-.142,1.405-0.223,2.029A1.5,1.5,0,0,1,1185.313,166.143Z"/>
      <path class="cls-1" d="M1188.058,77.4c-7.955,0-18.4-10.972-19.748-12.419l-1.894-2.04,2.745-.46c10.478-1.754,20.918,3.729,23.283,12.223l0.3,1.079-0.948.595A6.9,6.9,0,0,1,1188.058,77.4ZM1172.74,65.18c4.361,4.133,11.967,10.2,16.395,9.105-2.4-5.87-9.557-9.106-16.254-9.106h-0.141Z"/>
    </g>
    <g>
      <path class="cls-1" d="M1185.079,209.875a2,2,0,0,1-2-2V175.108c0-19.561,2.9-33.2,9.993-47.061a35.8,35.8,0,0,0,3.018-25.871c-0.569-2.3-1.256-4.57-1.982-6.978a110.982,110.982,0,0,1-5.6-36.552,2,2,0,0,1,4,0,107.512,107.512,0,0,0,5.428,35.4c0.742,2.457,1.442,4.778,2.036,7.172a39.648,39.648,0,0,1-3.338,28.652c-7.931,15.492-9.556,29.29-9.556,45.242v32.767A2,2,0,0,1,1185.079,209.875Z"/>
      <g>
        <path class="cls-1" d="M1195.258,94.939l-0.335-1.068c-2.191-6.989,2.588-15.523,10.654-19.023l2.553-1.108-0.479,2.742c-0.327,1.875-3.421,18.319-11.273,18.441ZM1204,79.156c-4.151,2.9-7.227,7.8-6.522,12.487C1200.423,90.257,1202.77,84,1204,79.156Z"/>
        <path class="cls-1" d="M1159.725,111.387c-6.279,0-14.425-4.376-15.637-5.048l-2.435-1.348,2.465-1.292c7.788-4.083,17.431-2.448,21.5,3.645l0.621,0.931-0.716.861C1164.154,110.776,1162.068,111.387,1159.725,111.387Zm-11.283-6.2c4.833,2.243,10.974,4.168,13.837,2.755C1159.072,104.444,1153.313,103.764,1148.441,105.183Z"/>
        <path class="cls-1" d="M1220.4,132.381c-2.345,0-4.429-.61-5.795-2.251l-0.716-.861,0.621-.931c4.066-6.092,13.709-7.728,21.5-3.645l2.465,1.292-2.435,1.348C1234.826,128,1226.68,132.381,1220.4,132.381Zm-2.551-3.452c2.927,1.423,9.272-.679,13.815-2.758C1226.8,124.76,1221.053,125.443,1217.85,128.929Z"/>
      </g>
    </g>
  </g>
  <g>
    <path class="cls-1" d="M1280.859,92.485l-0.437-1.031c-2.4-5.658.88-13.163,7.309-16.729l2.434-1.35-0.21,2.775c-1.115,14.7-6.846,16.081-7.983,16.209Zm5.676-13.174c-2.683,2.549-4.434,6.236-3.775,9.583C1284.664,87.432,1285.908,83.008,1286.535,79.311Z"/>
    <g>
      <path class="cls-1" d="M1310.373,210.434h-39.922V170.512Zm-36.922-3h29.68l-29.68-29.68v29.68Z"/>
      <path class="cls-1" d="M1349.711,210.434h-39.922l39.922-39.922v39.922Zm-32.68-3h29.68v-29.68Z"/>
      <path class="cls-1" d="M1310.855,160.232l-0.1,0a1.5,1.5,0,0,1-1.4-1.594c0.116-1.8.456-3.959,0.851-6.463,1.479-9.4,3.5-22.264-3.971-30.142a62.979,62.979,0,0,0-10.5-8.312c-7.746-5.282-15.757-10.745-15.161-22.657a1.5,1.5,0,1,1,3,.149c-0.512,10.232,6.146,14.772,13.855,20.029a65.2,65.2,0,0,1,10.981,8.727c8.491,8.95,6.245,23.226,4.759,32.673-0.383,2.432-.714,4.531-0.82,6.19A1.5,1.5,0,0,1,1310.855,160.232Z"/>
      <path class="cls-1" d="M1310.313,166.205a1.5,1.5,0,0,1-1.489-1.694c0.078-.6.143-1.247,0.212-1.94,0.668-6.661,1.785-17.808,17.761-25.023,15.919-7.189,18.39-20.737,18.413-20.873a1.5,1.5,0,1,1,2.957.5c-0.1.62-2.776,15.266-20.136,23.105-14.4,6.5-15.368,16.182-16.01,22.588-0.073.726-.142,1.405-0.223,2.029A1.5,1.5,0,0,1,1310.313,166.205Z"/>
      <path class="cls-1" d="M1313.058,77.465c-7.955,0-18.4-10.972-19.748-12.419l-1.894-2.04,2.745-.46c10.479-1.754,20.918,3.729,23.283,12.223l0.3,1.079-0.948.595A6.9,6.9,0,0,1,1313.058,77.465ZM1297.74,65.243c4.36,4.134,11.963,10.2,16.395,9.105-2.4-5.87-9.557-9.106-16.254-9.106h-0.141Z"/>
    </g>
    <g>
      <path class="cls-1" d="M1310.771,160.466l-0.1,0a1.5,1.5,0,0,1-1.4-1.594c0.116-1.8.456-3.959,0.851-6.464,1.479-9.4,3.5-22.264-3.97-30.142a62.91,62.91,0,0,0-10.49-8.308l-0.244-.167a1.5,1.5,0,1,1,1.689-2.479l0.245,0.167a65.2,65.2,0,0,1,10.976,8.722c8.49,8.95,6.244,23.226,4.758,32.672-0.383,2.432-.714,4.532-0.82,6.191A1.5,1.5,0,0,1,1310.771,160.466Z"/>
      <path class="cls-1" d="M1310.079,210.188a2,2,0,0,1-2-2V175.171c0-19.561,2.9-33.2,9.993-47.061a35.8,35.8,0,0,0,3.018-25.871c-0.569-2.3-1.256-4.57-1.982-6.978a110.982,110.982,0,0,1-5.6-36.552,2,2,0,0,1,4,0,107.512,107.512,0,0,0,5.428,35.4c0.742,2.457,1.442,4.778,2.036,7.172a39.648,39.648,0,0,1-3.338,28.652c-7.931,15.492-9.556,29.29-9.556,45.242v33.017A2,2,0,0,1,1310.079,210.188Z"/>
      <g>
        <path class="cls-1" d="M1320.258,95l-0.335-1.068c-2.191-6.989,2.588-15.523,10.654-19.023l2.553-1.108-0.479,2.742c-0.327,1.875-3.421,18.319-11.273,18.441ZM1329,79.219c-4.151,2.9-7.227,7.8-6.522,12.487C1325.423,90.32,1327.77,84.06,1329,79.219Z"/>
        <path class="cls-1" d="M1284.725,111.45c-6.279,0-14.425-4.376-15.637-5.048l-2.435-1.348,2.465-1.292c7.787-4.083,17.431-2.448,21.5,3.645l0.621,0.931-0.716.861C1289.154,110.839,1287.068,111.45,1284.725,111.45Zm-11.283-6.2c4.833,2.243,10.974,4.167,13.837,2.755C1284.072,104.507,1278.313,103.826,1273.441,105.246Z"/>
        <path class="cls-1" d="M1345.4,132.443c-2.345,0-4.429-.61-5.795-2.251l-0.716-.861,0.621-.931c4.067-6.092,13.709-7.727,21.5-3.645l2.465,1.292-2.435,1.348C1359.826,128.067,1351.68,132.443,1345.4,132.443Zm-2.551-3.452c2.926,1.422,9.272-.678,13.815-2.758C1351.8,124.821,1346.053,125.506,1342.85,128.992Z"/>
      </g>
    </g>
  </g>
  <g>
    <path class="cls-1" d="M1470.4,132.258c-2.345,0-4.429-.61-5.795-2.251l-0.716-.861,0.621-.931c4.066-6.092,13.709-7.727,21.5-3.645l2.465,1.292-2.435,1.348C1484.822,127.882,1476.676,132.258,1470.4,132.258Zm-2.551-3.452c2.928,1.423,9.271-.679,13.815-2.758C1476.795,124.636,1471.049,125.321,1467.846,128.807Z"/>
    <path class="cls-1" d="M1472.5,117.953l-0.883-.689c-0.9-.7-5.063-4.881,1.668-17.991l1.271-2.476,1.369,2.423c3.616,6.4,2.488,14.512-2.514,18.082Zm2.043-14.215c-1.516,3.745-2.585,7.993-1.779,10.153C1475.073,111.377,1475.5,107.314,1474.544,103.738Z"/>
    <path class="cls-1" d="M1405.859,92.61l-0.437-1.031c-2.4-5.658.88-13.163,7.309-16.729l2.434-1.35-0.21,2.775c-1.115,14.7-6.846,16.081-7.983,16.209Zm5.676-13.174c-2.683,2.549-4.434,6.236-3.775,9.583C1409.664,87.557,1410.908,83.133,1411.535,79.436Z"/>
    <path class="cls-1" d="M1435.373,210.559h-39.922V170.637Zm-36.922-3h29.68l-29.68-29.68v29.68Z"/>
    <path class="cls-1" d="M1474.711,210.559h-39.922l39.922-39.922v39.922Zm-32.68-3h29.68v-29.68Z"/>
    <path class="cls-1" d="M1435.855,160.357l-0.1,0a1.5,1.5,0,0,1-1.4-1.594c0.116-1.8.456-3.959,0.851-6.463,1.479-9.4,3.5-22.264-3.971-30.142a62.979,62.979,0,0,0-10.5-8.312c-7.746-5.282-15.757-10.745-15.161-22.657a1.5,1.5,0,1,1,3,.149c-0.512,10.232,6.146,14.772,13.855,20.029a65.2,65.2,0,0,1,10.981,8.727c8.491,8.95,6.245,23.226,4.759,32.673-0.383,2.432-.714,4.531-0.82,6.19A1.5,1.5,0,0,1,1435.855,160.357Z"/>
    <path class="cls-1" d="M1438.058,77.59c-7.955,0-18.4-10.972-19.748-12.419l-1.894-2.04,2.745-.46c10.477-1.755,20.918,3.729,23.283,12.223l0.3,1.079-0.948.595A6.9,6.9,0,0,1,1438.058,77.59ZM1422.74,65.368c4.361,4.133,11.965,10.2,16.395,9.105-2.4-5.87-9.557-9.106-16.254-9.106h-0.141Z"/>
    <path class="cls-1" d="M1435.02,210.333a2,2,0,0,1-2-2v-33.1c0-19.561,2.9-33.2,9.993-47.061a35.8,35.8,0,0,0,3.018-25.871c-0.569-2.3-1.256-4.57-1.982-6.978a110.982,110.982,0,0,1-5.6-36.552,2,2,0,0,1,4,0,107.512,107.512,0,0,0,5.428,35.4c0.742,2.457,1.442,4.778,2.036,7.172a39.648,39.648,0,0,1-3.338,28.652c-7.931,15.492-9.556,29.29-9.556,45.242v33.1A2,2,0,0,1,1435.02,210.333Z"/>
    <path class="cls-1" d="M1435.228,166.563a1.5,1.5,0,0,1-1.489-1.694c0.078-.6.143-1.247,0.212-1.94,0.668-6.661,1.785-17.809,17.762-25.023a34.868,34.868,0,0,0,11.688-8.388,1.5,1.5,0,0,1,2.23,2.007,37.847,37.847,0,0,1-12.685,9.115c-14.4,6.5-15.368,16.183-16.011,22.588-0.073.726-.142,1.405-0.223,2.029A1.5,1.5,0,0,1,1435.228,166.563Z"/>
    <path class="cls-1" d="M1435.168,166.58a1.5,1.5,0,0,1-1.489-1.694c0.078-.6.143-1.247,0.212-1.94,0.668-6.661,1.785-17.808,17.761-25.023,15.919-7.189,18.39-20.737,18.413-20.873a1.5,1.5,0,1,1,2.957.5c-0.1.62-2.776,15.266-20.136,23.105-14.4,6.5-15.368,16.182-16.01,22.588-0.073.726-.142,1.405-0.223,2.029A1.5,1.5,0,0,1,1435.168,166.58Z"/>
    <path class="cls-1" d="M1445.258,95.126l-0.335-1.068c-2.191-6.989,2.588-15.523,10.654-19.023l2.553-1.108-0.479,2.742c-0.327,1.875-3.421,18.319-11.273,18.441ZM1454,79.344c-4.151,2.9-7.227,7.8-6.522,12.487C1450.423,90.445,1452.77,84.185,1454,79.344Z"/>
    <path class="cls-1" d="M1409.725,111.575c-6.279,0-14.425-4.376-15.637-5.048l-2.435-1.348,2.465-1.292c7.789-4.083,17.431-2.448,21.5,3.645l0.621,0.931-0.716.861C1414.154,110.964,1412.068,111.575,1409.725,111.575Zm-11.283-6.2c4.832,2.243,10.974,4.167,13.837,2.755C1409.073,104.632,1403.313,103.951,1398.441,105.371Z"/>
  </g>
  <g>
    <path class="cls-1" d="M1560.371,210.584h-39.922V170.663Zm-36.922-3h29.68l-29.68-29.679v29.679Z"/>
    <path class="cls-1" d="M1599.709,210.584h-39.922l39.922-39.921v39.921Zm-32.68-3h29.68V177.9Z"/>
    <path class="cls-1" d="M1560.038,210.563a2,2,0,0,1-2-2V175.171c0-19.562,2.895-33.2,9.992-47.062a35.8,35.8,0,0,0,3.018-25.871c-0.569-2.3-1.256-4.572-1.982-6.98a110.977,110.977,0,0,1-5.6-36.549,2,2,0,1,1,4,0,107.511,107.511,0,0,0,5.427,35.394c0.742,2.458,1.442,4.779,2.036,7.174a39.647,39.647,0,0,1-3.338,28.652c-7.93,15.491-9.555,29.289-9.555,45.242v33.391A2,2,0,0,1,1560.038,210.563Z"/>
    <path class="cls-1" d="M1560.854,160.383l-0.1,0a1.5,1.5,0,0,1-1.4-1.594c0.116-1.8.456-3.958,0.851-6.463,1.479-9.4,3.5-22.264-3.971-30.143a62.976,62.976,0,0,0-10.5-8.312c-7.746-5.283-15.757-10.745-15.161-22.657a1.5,1.5,0,1,1,3,.149c-0.512,10.232,6.146,14.772,13.855,20.028a65.2,65.2,0,0,1,10.981,8.727c8.491,8.95,6.245,23.226,4.758,32.673-0.382,2.431-.713,4.531-0.819,6.19A1.5,1.5,0,0,1,1560.854,160.383Z"/>
    <path class="cls-1" d="M1560.312,166.355a1.5,1.5,0,0,1-1.489-1.694c0.078-.6.143-1.247,0.212-1.94,0.668-6.66,1.785-17.808,17.761-25.023,15.919-7.189,18.39-20.737,18.413-20.873a1.5,1.5,0,1,1,2.957.5c-0.1.62-2.776,15.266-20.136,23.105-14.4,6.5-15.367,16.183-16.01,22.588-0.073.726-.142,1.405-0.223,2.029A1.5,1.5,0,0,1,1560.312,166.355Z"/>
    <path class="cls-1" d="M1565.164,60.483l-0.862-.714c-3.653-3.031-4.011-9.087-1.061-18a79.085,79.085,0,0,1,5.178-11.931l1.345-2.437,1.3,2.463c5.724,10.875,3.5,24.332-4.965,30Zm4.467-26.45c-3.184,6.557-7.516,17.967-4.2,22.585C1571.543,51.627,1572.464,41.776,1569.631,34.033Z"/>
    <path class="cls-1" d="M1563.056,77.615c-7.955,0-18.405-10.972-19.749-12.419l-1.894-2.04,2.745-.46c10.47-1.753,20.918,3.729,23.284,12.223l0.3,1.079-0.948.595A6.9,6.9,0,0,1,1563.056,77.615Zm-15.317-12.222c4.359,4.133,11.962,10.2,16.395,9.1C1561.718,68.589,1554.479,65.373,1547.738,65.394Z"/>
    <path class="cls-1" d="M1570.235,94.819L1569.9,93.75c-2.191-6.989,2.588-15.523,10.653-19.023l2.554-1.108-0.479,2.742c-0.327,1.875-3.422,18.319-11.273,18.441ZM1579,79.025c-4.161,2.9-7.246,7.813-6.539,12.5C1575.353,90.187,1577.71,84.2,1579,79.025Z"/>
    <path class="cls-1" d="M1534.7,111.267c-6.279,0-14.426-4.376-15.638-5.047l-2.435-1.348,2.465-1.292c7.788-4.083,17.431-2.447,21.5,3.645l0.621,0.931-0.716.861C1539.131,110.656,1537.046,111.267,1534.7,111.267Zm-11.284-6.2c4.833,2.245,10.978,4.167,13.838,2.756C1534.048,104.325,1528.286,103.644,1523.418,105.063Z"/>
    <path class="cls-1" d="M1595.378,132.261c-2.346,0-4.43-.61-5.8-2.252l-0.716-.861,0.621-.931c4.066-6.094,13.709-7.729,21.5-3.645l2.465,1.292-2.435,1.348C1609.8,127.884,1601.656,132.261,1595.378,132.261Zm-2.552-3.452c2.927,1.422,9.273-.68,13.815-2.758C1601.776,124.639,1596.03,125.322,1592.826,128.809Z"/>
    <path class="cls-1" d="M1530.92,92.511l-0.437-1.031c-2.4-5.659.88-13.164,7.309-16.729l2.434-1.35-0.21,2.775c-1.116,14.694-6.846,16.08-7.982,16.208Zm5.688-13.187c-2.687,2.547-4.444,6.235-3.79,9.586C1534.634,87.491,1535.943,83.31,1536.608,79.325Z"/>
    <path class="cls-1" d="M1597.481,117.955l-0.883-.689c-0.9-.7-5.063-4.881,1.668-17.991l1.271-2.476,1.369,2.423c3.617,6.4,2.489,14.511-2.514,18.082Zm2.044-14.215c-1.517,3.745-2.586,7.994-1.779,10.153C1600.055,111.379,1600.484,107.316,1599.525,103.74Z"/>
  </g>
</svg>
